<svg id="Layer_1" viewBox="0 0 64 64" xmlns="http://www.w3.org/2000/svg" data-name="Layer 1"><path d="m40.073 22.28c-.172-.636-.433-1.257-.795-1.896-.199-.351-.167-.786.079-1.105l1.826-2.359-1.582-1.582-2.361 1.821c-.318.246-.753.277-1.104.078-.627-.355-1.267-.623-1.903-.796-.39-.105-.678-.436-.73-.836l-.386-2.962h-2.237l-.386 2.962c-.052.4-.34.73-.73.836-.639.174-1.276.44-1.893.794-.352.198-.788.17-1.108-.076l-2.36-1.821-1.583 1.582 1.821 2.36c.246.319.277.754.079 1.104-.363.64-.623 1.261-.795 1.896-.106.39-.436.678-.836.729l-2.956.387v2.236l2.954.38c.4.052.73.339.836.729.188.687.454 1.326.789 1.899.206.351.178.792-.07 1.115l-1.822 2.366 1.581 1.577 2.361-1.826c.32-.248.758-.276 1.109-.077.617.354 1.253.62 1.893.794.39.105.678.435.73.836l.386 2.961h2.237l.386-2.961c.052-.399.338-.729.726-.835.681-.188 1.312-.453 1.878-.787.352-.21.794-.182 1.12.068l2.375 1.828 1.582-1.578-1.822-2.366c-.245-.319-.276-.754-.078-1.104.348-.613.613-1.254.789-1.903.106-.39.436-.678.836-.729l2.961-.386v-2.237l-2.962-.387c-.4-.052-.73-.34-.836-.729zm-8.073 8.674c-3.55 0-6.438-2.888-6.438-6.438s2.888-6.438 6.438-6.438 6.438 2.888 6.438 6.438-2.888 6.438-6.438 6.438z"/><circle cx="32" cy="24.517" r="4.438"/><path d="m15.68 47.77h32.64v8.23h-32.64z"/><path d="m48.32 8h-32.64v33.03h32.64zm-2.449 18.512c0 .502-.373.927-.871.991l-3.196.417c-.132.38-.288.755-.467 1.123l1.968 2.556c.307.398.27.963-.086 1.318l-2.826 2.819c-.355.354-.917.393-1.316.084l-2.556-1.968c-.357.176-.73.332-1.117.466l-.417 3.197c-.065.498-.489.871-.992.871h-3.993c-.502 0-.927-.373-.992-.871l-.417-3.196c-.376-.132-.75-.289-1.118-.47l-2.546 1.97c-.399.307-.963.271-1.318-.083l-2.827-2.819c-.356-.355-.393-.92-.086-1.318l1.964-2.551c-.178-.362-.334-.741-.47-1.134l-3.188-.41c-.499-.064-.872-.489-.872-.992v-3.993c0-.502.373-.927.871-.991l3.191-.417c.131-.375.288-.746.471-1.118l-1.965-2.547c-.308-.398-.271-.963.084-1.318l2.827-2.826c.355-.356.918-.393 1.318-.085l2.546 1.965c.368-.181.742-.338 1.119-.47l.417-3.197c.065-.498.489-.871.992-.871h3.993c.502 0 .927.373.992.871l.417 3.197c.377.132.752.289 1.124.471l2.548-1.966c.399-.307.963-.271 1.318.085l2.826 2.826c.356.355.392.921.084 1.319l-1.971 2.547c.183.371.339.742.47 1.116l3.198.418c.498.064.871.489.871.991v3.993z"/><path d="m11.677 60h40.646v-56h-40.646zm2.003-53c0-.553.448-1 1-1h34.64c.552 0 1 .447 1 1v35.03c0 .553-.448 1-1 1h-34.64c-.552 0-1-.447-1-1zm0 39.77c0-.553.448-1 1-1h34.64c.552 0 1 .447 1 1v10.23c0 .553-.448 1-1 1h-34.64c-.552 0-1-.447-1-1z"/></svg>