<svg id="Capa_1" enable-background="new 0 0 512 512" height="512" viewBox="0 0 512 512" width="512" xmlns="http://www.w3.org/2000/svg"><g><path d="m210.75 62.375c0-4.687 3.813-8.5 8.5-8.5h73.5c4.687 0 8.5 3.813 8.5 8.5v19.25h30v-19.25c0-21.229-17.271-38.5-38.5-38.5h-73.5c-21.229 0-38.5 17.271-38.5 38.5v19.25h30z"/><path d="m304.875 303.117v19.388c0 6.463-4.14 12.2-10.274 14.236l-33.875 11.245c-3.068 1.018-6.383 1.018-9.451 0l-33.875-11.245c-6.135-2.036-10.274-7.773-10.274-14.236v-19.388l-160.344-40.086c-18.194-4.548-34.174-13.822-46.782-26.311v221.405c0 16.569 13.431 30 30 30h452c16.569 0 30-13.431 30-30v-221.405c-12.608 12.489-28.588 21.763-46.782 26.311zm169.375 132.258c0 8.284-6.716 15-15 15h-67.75c-8.284 0-15-6.716-15-15s6.716-15 15-15h67.75c8.284 0 15 6.716 15 15z"/><path d="m482 111.625h-452c-16.569 0-30 13.431-30 30v23.067c0 32.748 22.287 61.293 54.057 69.235l153.068 38.267v-6.194c0-8.284 6.716-15 15-15h67.75c8.284 0 15 6.716 15 15v6.194l153.068-38.267c31.769-7.942 54.057-36.487 54.057-69.235v-23.067c0-16.569-13.431-30-30-30z"/><path d="m274.875 311.68v-30.68h-37.75v30.68l18.875 6.265z"/></g></svg>